<svg xmlns="http://www.w3.org/2000/svg" width="19" height="24" viewBox="0 0 19 24">
    <path fill="#898D8D" fill-opacity=".503" fill-rule="nonzero" d="M18.348 21.05l-2.693-4.653a1.825 1.825 0 0 0-1.576-.916l-.77-1.337c.038-.055.074-.11.11-.165l3.024-5.24c0-.018.018-.018.018-.037.366-.714.366-1.575-.037-2.271v-.019l-3.022-5.24A2.31 2.31 0 0 0 11.405 0H5.359c-.843 0-1.612.458-1.997 1.154L.302 6.412a2.32 2.32 0 0 0 0 2.29l3.023 5.24a2.318 2.318 0 0 0 2.015 1.173h6.065c.055 0 .11 0 .146-.019l.806 1.374a1.808 1.808 0 0 0 .037 1.777l2.675 4.654c.33.586.934.934 1.612.934.33 0 .641-.091.934-.256l.055-.037c.88-.476 1.191-1.63.678-2.492zM5.066 12.971L2.043 7.713c-.055-.092-.055-.202 0-.311l3.023-5.258a.323.323 0 0 1 .274-.147h6.046c.129 0 .22.055.275.165l3.023 5.24a.388.388 0 0 1 0 .348l-3.005 5.221a.323.323 0 0 1-.274.147H5.34c-.11.018-.201-.037-.274-.147z"/>
</svg>
